<?xml version="1.0" standalone="no"?><!DOCTYPE svg PUBLIC "-//W3C//DTD SVG 1.1//EN" "http://www.w3.org/Graphics/SVG/1.1/DTD/svg11.dtd"><svg   viewBox="0 0 1024 1024" version="1.1" xmlns="http://www.w3.org/2000/svg" xmlns:xlink="http://www.w3.org/1999/xlink" width="200" height="200"> 

 <path d="M 891.412 334.9601 H 648.405 c -6.8127 -15.1394 -19.8137 -28.3864 -36.8645 -38.0189 L 803.0923 19.2839 a 12.3008 12.3008 0 0 0 -20.249 -13.9661 L 588.5664 286.8735 a 147.7231 147.7231 0 0 0 -45.4183 -7.002 a 151.5079 151.5079 0 0 0 -31.8874 3.3685 L 239.9808 4.7122 A 12.3008 12.3008 0 0 0 222.438 21.8765 l 262.7261 269.8037 c -22.1414 9.8217 -39.1165 25.1125 -47.3107 43.242 H 132.5476 A 91.7639 91.7639 0 0 0 40.7647 426.7051 v 414.4422 A 91.7639 91.7639 0 0 0 132.5476 932.968 h 268.0249 l -19.9084 46.989 c -12.6414 29.8815 22.6145 57.0946 48.2948 37.2998 L 538.4738 932.968 h 352.9382 a 91.7639 91.7639 0 0 0 91.7829 -91.7829 v -414.4422 a 91.7639 91.7639 0 0 0 -91.7829 -91.7829 z z"  fill="#F09199" stroke-width="4"  stroke="#ffffff"></path>
 
 </svg>
