<svg width="145" height="145" viewBox="0 0 145 145" fill="none" xmlns="http://www.w3.org/2000/svg" class="_musume_1trp9_83"><g mask="url(#mask0_1164_4155)"><path fill-rule="evenodd" clip-rule="evenodd" d="M 84.803 29.6984 C 84.803 29.6984 72.5 25.2487 60.197 29.6984 C 60.197 29.6984 61.0758 31.4783 61.9545 37.263 C 60.197 31.4783 48.7727 11.8995 34.7121 3 C 34.7121 33.4172 49.879 40.2333 52.38 41.1505 L 44.8182 38.5979 C 34.7121 41.2677 14.5 119.138 14.5 132.487 C 14.5 135.157 17.1364 143.167 22.4091 143.167 C 25.4848 143.167 54.9242 143.012 54.9242 143.012 H 122.591 C 127.424 143.167 130.5 135.157 130.5 132.487 C 130.5 119.138 110.288 41.2677 100.182 38.5979 L 92.7731 41.0988 C 95.6821 40.0104 110.288 33.0496 110.288 3 C 96.2273 11.8995 84.803 31.4783 82.6061 37.263 C 83.9242 31.4783 84.803 29.6984 84.803 29.6984 Z M 92.2727 41.2677 C 92.2727 41.2677 92.4514 41.2192 92.7731 41.0988 L 92.2727 41.2677 Z M 52.7273 41.2677 L 52.38 41.1505 C 52.6048 41.2329 52.7273 41.2677 52.7273 41.2677 Z Z Z Z Z" fill="#F09199" stroke-width="3"  stroke="#fff" ></path></g></svg>