<svg width="145" height="145" xmlns="http://www.w3.org/2000/svg" class="_musume_1trp9_83" fill="none">

 <g>
  <title>Layer 1</title>
  <path stroke-width="0" id="svg_2" fill="#F09199" d="m84.803,29.1149c0,0 -12.303,-4.4497 -24.606,0c0,0 0.8788,1.7799 1.7575,7.5646c-1.7575,-5.7847 -13.1818,-25.3635 -27.2424,-34.263c0,30.4172 15.1669,37.2333 17.6679,38.1505l-7.5618,-2.5526c-10.1061,2.6698 -30.3182,80.5401 -30.3182,93.8891c0,2.67 2.6364,10.68 7.9091,10.68c3.0757,0 32.5151,-0.155 32.5151,-0.155l67.6668,0c4.833,0.155 7.909,-7.855 7.909,-10.525c0,-13.349 -20.212,-91.2193 -30.318,-93.8891l-7.4089,2.5009c2.909,-1.0884 17.5149,-8.0492 17.5149,-38.0988c-14.0607,8.8995 -25.485,28.4783 -27.6819,34.263c1.3181,-5.7847 2.1969,-7.5646 2.1969,-7.5646zm7.4697,11.5693c0,0 0.1787,-0.0485 0.5004,-0.1689l-0.5004,0.1689zm-39.5454,0l-0.3473,-0.1172c0.2248,0.0824 0.3473,0.1172 0.3473,0.1172zl0,0zl0,0zl0,0zl0,0z" clip-rule="evenodd" fill-rule="evenodd"/>
 </g>
</svg>